Coordinates
version=1
nRows=16
nColumns=36
inDegrees=yes

Units are S.I. units (second, meters, Newtons, ...)
If the header above contains a line with 'inDegrees', this indicates whether rotational values are in degrees (yes) or radians (no).

endheader
time	pelvis_tilt	pelvis_list	pelvis_rotation	pelvis_tx	pelvis_ty	pelvis_tz	hip_flexion_r	hip_adduction_r	hip_rotation_r	knee_angle_r	knee_angle_r_beta	ankle_angle_r	subtalar_angle_r	mtp_angle_r	hip_flexion_l	hip_adduction_l	hip_rotation_l	knee_angle_l	knee_angle_l_beta	ankle_angle_l	subtalar_angle_l	mtp_angle_l	lumbar_extension	lumbar_bending	lumbar_rotation	arm_flex_r	arm_add_r	arm_rot_r	elbow_flex_r	pro_sup_r	arm_flex_l	arm_add_l	arm_rot_l	elbow_flex_l	pro_sup_l
      0.00000000	     -4.21439147	     -0.22233055	      0.31658890	     -0.13338516	      0.95645564	     -0.60530595	      1.00104993	     -5.83594654	     -4.08626023	      1.63031522	      0.02845437	      5.80599869	      0.48537179	     -5.43683049	      1.87235934	     -5.99531686	     -3.47525363	      1.87582463	      0.03273932	      5.18199587	     -1.01063123	     -5.43683049	     -0.89439974	     -0.29070830	     -1.05230852	      0.46042251	     -2.31969914	    -12.47004429	     30.47651283	    111.59071279	      4.17648012	     -4.14114988	      8.28288168	     24.50609226	    104.37951817
      0.01000000	     -4.21775542	     -0.19443488	      0.30157787	     -0.13332201	      0.95642586	     -0.60531208	      1.01349129	     -5.86888318	     -4.15393182	      1.65384265	      0.02886500	      5.90092528	      0.62435394	     -6.23851083	      1.87903234	     -5.96390280	     -3.59036861	      1.89680369	      0.03310547	      5.27980982	     -0.80338815	     -6.23851083	     -0.88176478	     -0.33707543	     -1.12048541	      0.52142964	     -2.37658084	    -12.08152868	     30.35022561	    111.48782797	      4.07061087	     -4.12359372	      7.90494417	     24.63538496	    104.70876276
      0.02000000	     -4.21611674	     -0.21566497	      0.32993613	     -0.13328260	      0.95642034	     -0.60534685	      0.99838341	     -5.83534347	     -4.20962428	      1.63622331	      0.02855748	      5.75426438	      0.46068089	     -6.67974290	      1.86981899	     -5.97257946	     -3.44443651	      1.88053789	      0.03282158	      5.25584808	     -1.11017146	     -6.67974290	     -0.86504641	     -0.30721095	     -1.06864814	      0.47070922	     -2.35316821	    -12.31163392	     30.42310838	    111.28072974	      4.15604723	     -4.14540629	      8.40310029	     24.47417917	    104.29854771
      0.03000000	     -4.21665192	     -0.22182179	      0.31294563	     -0.13325840	      0.95639249	     -0.60534643	      0.99458299	     -5.82962753	     -4.09012212	      1.63112551	      0.02846851	      5.77683111	      0.38885701	     -6.82849910	      1.87356082	     -5.98382099	     -3.51931208	      1.90016639	      0.03316416	      5.31475997	     -0.93784036	     -6.82849910	     -0.85579098	     -0.30835242	     -1.01267617	      0.45847258	     -2.35614519	    -12.37576800	     30.42297038	    111.30783576	      4.14346818	     -4.11238245	      8.27262198	     24.51493690	    104.28735264
      0.04000000	     -4.19138887	     -0.21929138	      0.29416734	     -0.13328973	      0.95643426	     -0.60536770	      0.98468587	     -5.84269932	     -4.07606355	      1.65807917	      0.02893894	      5.84374350	      0.49433167	     -6.98830756	      1.83896546	     -5.97835169	     -3.51481557	      1.88910757	      0.03297115	      5.24904782	     -0.84688959	     -6.98830756	     -0.87550959	     -0.32230030	     -1.05157303	      0.56807692	     -2.51755758	    -11.41877758	     30.14449685	    110.32486995	      4.14524042	     -4.12574563	      8.67171369	     24.52836376	    102.85616640
      0.05000000	     -4.17670592	     -0.20889016	      0.27043677	     -0.13328116	      0.95644616	     -0.60533524	      0.96451717	     -5.84683302	     -4.04973338	      1.63698026	      0.02857070	      5.81044171	      0.45942491	     -7.18864431	      1.82480941	     -5.96874754	     -3.61195066	      1.89351922	      0.03304814	      5.28413303	     -0.65074533	     -7.18864431	     -0.90664556	     -0.32479298	     -0.96124108	      0.46734076	     -2.36601568	    -12.46023433	     30.45493978	    111.46948457	      4.21333602	     -4.06638386	      8.34608571	     24.35390555	    104.16358560
      0.06000000	     -4.19960798	     -0.23700299	      0.32552876	     -0.13316401	      0.95642914	     -0.60538111	      0.97559573	     -5.81741656	     -4.17057415	      1.63732383	      0.02857669	      5.75857941	      0.47100962	     -7.22774684	      1.85288875	     -6.00423384	     -3.52331880	      1.90039400	      0.03316813	      5.30041754	     -0.66423312	     -7.22774684	     -0.83866256	     -0.31921255	     -1.09458277	      0.56207444	     -2.45356910	    -11.87036828	     30.21271759	    110.95751957	      4.14703594	     -4.05132287	      8.30431962	     24.36206597	    103.59868582
      0.07000000	     -4.22564870	     -0.24969717	      0.31911861	     -0.13306938	      0.95641674	     -0.60535071	      0.98512072	     -5.79602372	     -4.06363341	      1.61706797	      0.02822316	      5.72997743	      0.34941993	     -7.29916989	      1.85716951	     -6.01671727	     -3.49878045	      1.86613120	      0.03257013	      5.23204155	     -0.86535978	     -7.29916989	     -0.78237061	     -0.31868669	     -1.09530355	      0.61385924	     -2.55113763	    -11.33834952	     29.96666575	    110.88664776	      4.18526493	     -4.08515604	      8.75705884	     24.25360798	    102.76576333
      0.08000000	     -4.21297611	     -0.24806360	      0.33185317	     -0.13302219	      0.95640333	     -0.60538445	      0.98039153	     -5.80395278	     -4.17762157	      1.64767413	      0.02875734	      5.82749477	      0.53284409	     -7.40707120	      1.85468419	     -6.01762407	     -3.58750690	      1.89388581	      0.03305454	      5.37176411	     -0.70610773	     -7.40707120	     -0.79789162	     -0.32174254	     -1.05976022	      0.56245141	     -2.48221955	    -11.90341527	     30.13722533	    111.58679330	      4.17013304	     -4.01255985	      8.12603340	     24.25370078	    104.34114195
      0.09000000	     -4.21951538	     -0.23412718	      0.32334565	     -0.13309094	      0.95637218	     -0.60542376	      0.99205624	     -5.82266197	     -4.10086320	      1.64822594	      0.02876697	      5.79455660	      0.41606504	     -7.43226424	      1.85748284	     -5.99182708	     -3.53713370	      1.88321913	      0.03286837	      5.33816037	     -0.89878145	     -7.43226424	     -0.77663044	     -0.33580361	     -1.01016378	      0.60816567	     -2.54978221	    -11.59969363	     30.05583995	    111.08853998	      4.31698523	     -4.09735828	      8.96400881	     23.99609049	    103.68772346
      0.10000000	     -4.19563701	     -0.22735382	      0.29476694	     -0.13314152	      0.95641115	     -0.60544679	      0.98403026	     -5.83693320	     -4.07339847	      1.66239708	      0.02901430	      5.83794985	      0.46785293	     -7.46251257	      1.82824974	     -5.98404289	     -3.56763500	      1.88069469	      0.03282431	      5.34734488	     -0.88647214	     -7.46251257	     -0.81216114	     -0.34019750	     -0.93416928	      0.59528892	     -2.59692228	    -11.59799132	     30.14747786	    111.57243186	      4.40491087	     -4.13751630	      9.32483072	     23.94453784	    103.64173425
      0.11000000	     -4.17336007	     -0.24935635	      0.28648582	     -0.13318568	      0.95645670	     -0.60546403	      0.97945163	     -5.81302806	     -4.05422230	      1.68340714	      0.02938100	      5.79205941	      0.37314107	     -7.47444277	      1.81049120	     -6.00648281	     -3.59290915	      1.89396324	      0.03305589	      5.40028403	     -0.86916280	     -7.47444277	     -0.82652409	     -0.31791017	     -0.89207815	      0.64779497	     -2.70841810	    -11.14943911	     30.11510821	    111.40855417	      4.58801828	     -4.14613433	      9.65274885	     23.68651050	    103.75110627
      0.12000000	     -4.18442128	     -0.26082118	      0.32996177	     -0.13329501	      0.95646715	     -0.60555025	      0.98527170	     -5.79583873	     -4.02282993	      1.66894915	      0.02912866	      5.68936347	      0.17983133	     -7.48125411	      1.86293918	     -6.01518991	     -3.55324962	      1.92952527	      0.03367657	      5.34004533	     -0.80535778	     -7.48125411	     -0.81575140	     -0.30684357	     -0.90871667	      0.72271877	     -2.82957530	    -10.60639139	     30.09471643	    111.33890661	      4.83514562	     -4.13930562	     10.00432372	     23.34320750	    103.62286918
      0.13000000	     -4.19905811	     -0.28379083	      0.37450892	     -0.13335847	      0.95646620	     -0.60558341	      1.01252982	     -5.77325194	     -4.10949611	      1.70452316	      0.02974954	      5.74524589	      0.33140111	     -7.48787389	      1.91839044	     -6.04432172	     -3.52094115	      1.97457047	      0.03446276	      5.33630689	     -0.69851859	     -7.48787389	     -0.79365125	     -0.29843568	     -1.02999605	      0.87040345	     -3.02577474	     -9.54767259	     29.97080971	    111.37198281	      4.96073995	     -4.19697232	     10.04325450	     23.21891444	    103.98490131
      0.14000000	     -4.19483990	     -0.29292972	      0.33688605	     -0.13330154	      0.95651278	     -0.60544334	      1.01963564	     -5.75292006	     -4.01772594	      1.71836075	      0.02999105	      5.69787157	      0.21778124	     -7.49122544	      1.90658220	     -6.06973397	     -3.54784736	      1.97897559	      0.03453964	      5.27729002	     -0.69901393	     -7.49122544	     -0.76719065	     -0.30752463	     -0.96944383	      0.92512283	     -3.23104497	     -8.61121739	     30.04098736	    111.18624501	      5.16722382	     -4.34528255	     10.68706160	     23.08527387	    103.65623145
      0.15000000	     -4.16993229	     -0.27974710	      0.29913609	     -0.13313970	      0.95656732	     -0.60534127	      1.01759084	     -5.77036606	     -4.10128815	      1.77016512	      0.03089521	      5.79960506	      0.40746147	     -7.49407892	      1.84354250	     -6.05739289	     -3.51385115	      1.94577302	      0.03396015	      5.17721991	     -0.87120586	     -7.49407892	     -0.75227977	     -0.33502978	     -0.91335353	      1.01207492	     -3.46871101	     -7.56412813	     30.12874667	    110.86572463	      5.35564541	     -4.45918251	     11.09176163	     23.10242429	    103.16823933
